<?xml version="1.0" standalone="no"?>
<!DOCTYPE svg PUBLIC "-//W3C//DTD SVG 20010904//EN"
 "http://www.w3.org/TR/2001/REC-SVG-20010904/DTD/svg10.dtd">
<svg version="1.0" xmlns="http://www.w3.org/2000/svg"
 width="83.000000pt" height="82.000000pt" viewBox="0 0 83.000000 82.000000"
 preserveAspectRatio="xMidYMid meet">
<metadata>
Created by potrace 1.16, written by Peter Selinger 2001-2019
</metadata>
<g transform="translate(0.000000,82.000000) scale(0.100000,-0.100000)"
fill="#000000" stroke="none">
<path d="M580 772 c-60 -28 -113 -73 -310 -271 -117 -117 -185 -194 -204 -230
-28 -53 -28 -53 -8 -73 19 -19 21 -19 53 -3 60 31 151 110 295 257 195 198
252 279 224 313 -13 16 -26 18 -50 7z m35 -22 c16 -26 -51 -115 -215 -284
-215 -222 -384 -331 -321 -208 21 42 56 67 134 97 26 10 47 22 47 27 0 10 -31
3 -72 -18 -40 -20 -44 -17 -17 12 32 35 85 68 134 84 22 7 44 16 49 21 16 14
-21 11 -61 -6 -20 -8 -38 -13 -40 -11 -10 10 73 64 132 86 36 14 65 28 65 33
0 11 -13 9 -55 -9 -20 -8 -39 -13 -42 -11 -9 10 65 57 135 85 41 16 70 32 64
36 -5 3 -27 -1 -47 -10 -20 -8 -39 -13 -42 -11 -9 9 115 95 139 97 4 0 10 -4
13 -10z"/>
<path d="M715 614 c-73 -38 -221 -173 -388 -354 -114 -123 -148 -190 -113
-219 32 -27 132 46 323 238 205 205 273 299 243 336 -16 19 -28 19 -65 -1z
m55 -28 c0 -57 -391 -460 -500 -516 -55 -28 -71 -12 -37 39 31 46 49 59 130
92 56 22 74 39 40 39 -10 -1 -29 -7 -43 -15 -46 -26 -56 -15 -19 18 20 18 67
43 103 57 36 14 66 31 66 38 0 15 -25 10 -72 -14 -36 -19 -42 -18 -19 5 22 22
57 42 136 77 65 29 55 47 -12 19 l-38 -16 25 25 c14 14 60 41 104 59 43 19 73
37 68 41 -6 3 -23 1 -38 -4 -39 -15 -40 -6 -2 23 69 53 108 65 108 33z"/>
</g>
</svg>
