<svg xmlns="http://www.w3.org/2000/svg" style="margin:auto;background:#fffbf3;display:block;shape-rendering:auto" width="280" height="250" preserveAspectRatio="xMidYMid"><style>@keyframes bounce-9b1799c0-f084-412e-aa37-2137c6a37f32{0%{animation-timing-function:cubic-bezier(.1361,.2514,.2175,.8786);transform:translate(0,0) scaleY(1)}37%{animation-timing-function:cubic-bezier(.7674,.1844,.8382,.7157);transform:translate(0,-39.96px) scaleY(1)}72%{animation-timing-function:cubic-bezier(.1118,.2149,.2172,.941);transform:translate(0,0) scaleY(1)}87%{animation-timing-function:cubic-bezier(.7494,.2259,.8209,.6963);transform:translate(0,19.900000000000002px) scaleY(.602)}}</style><g style="transform-origin:140px 125px;transform:scale(1)"><g style="transform:matrix(1,0,0,1,0,0);transform-origin:5.20002px -1.9744px;animation:1s linear 0s infinite normal forwards running bounce-9b1799c0-f084-412e-aa37-2137c6a37f32"><path d="M21.84-24.48q4.16-1.36 9.68-1.36t5.52 3.2q0 1.92-2.08 3.16-2.08 1.24-6 1.24-6.16 0-9.92-2.96-1.44 1.52-2.24 2.56-.8 1.04-1.8 4t-1 7.12q0 4.16 3.52 7.24t7.32 3.08q3.8 0 7.08-1.44Q35.2-.08 37.12-2q1.92-1.92 3.36-4.24 2-2.96 2.64-5.2l1.6.4q0 .24-.6 1.68t-2.2 3.8Q40.32-3.2 38.08-1q-2.24 2.2-6.16 3.8Q28 4.4 23.36 4.4 14.8 4.4 10 .76 5.2-2.88 5.2-8.72T8.84-18q3.64-3.44 8.6-4.8-3.6-4.4-3.6-10.44 0-6.04 4.84-10.76t13.96-4.72q6.96 0 10.68 2.44 3.72 2.44 3.72 6.08t-1.88 7.44q-1.88 3.8-2.12 6.04h-1.68q.24-2.4 2.12-6.16 1.88-3.76 1.88-7t-3.4-5.32q-3.4-2.08-8.64-2.08t-8.92 4.04q-3.68 4.04-3.68 12.36 0 4.48 1.12 6.4zm1.2 2.32q.4.56 2.04 1.52 1.64.96 4.36.96 2.72 0 4.36-.84 1.64-.84 1.64-1.96 0-1.92-4.32-1.92t-8.64 1.28q.16.4.56.96" fill="#51cacc" stroke-width="none" transform="translate(119.08 145.186)" style="fill:#51cacc" class="path"/></g></g></svg>