<?xml version="1.0" encoding="utf-8"?>
<svg xmlns="http://www.w3.org/2000/svg" style="margin: auto; background: rgb(241, 242, 243); display: block; shape-rendering: auto;" width="280" height="250" preserveAspectRatio="xMidYMid">
<style type="text/css">
  text {
    text-anchor: middle; font-size: 81px; opacity: 0;
  }
</style>
<g style="transform-origin:140px 125px;transform:scale(1)">
<g transform="translate(140,125)">
  <g transform="translate(0,0)"><g class="path" style="opacity: 1; transform-origin: -95.195px -8.3093px; animation: 1s linear -0.5775s infinite normal forwards running blink-3927bf98-aa7b-4e42-8b74-03bcd1646162;"><path d="M11.35 0L6.49 0L6.49-56.72L11.35-56.72L11.35 0" fill="#347017" stroke="none" stroke-width="none" transform="translate(-104.114990234375,20.050695419311523)" style="fill: rgb(52, 112, 23);"></path></g><g class="path" style="opacity: 1; transform-origin: -68.68px -0.199305px; animation: 1s linear -0.495s infinite normal forwards running blink-3927bf98-aa7b-4e42-8b74-03bcd1646162;"><path d="M48.96-11.11L48.96-11.11L48.96-11.11Q48.96-8.66 48.03-6.49L48.03-6.49L48.03-6.49Q47.10-4.31 45.48-2.69L45.48-2.69L45.48-2.69Q43.86-1.07 41.69-0.14L41.69-0.14L41.69-0.14Q39.51 0.79 37.06 0.79L37.06 0.79L33.82 0.79L33.82 0.79Q31.36 0.79 29.19-0.14L29.19-0.14L29.19-0.14Q27.01-1.07 25.39-2.69L25.39-2.69L25.39-2.69Q23.77-4.31 22.84-6.49L22.84-6.49L22.84-6.49Q21.91-8.66 21.91-11.11L21.91-11.11L21.91-29.39L21.91-29.39Q21.91-31.84 22.84-34.01L22.84-34.01L22.84-34.01Q23.77-36.19 25.39-37.81L25.39-37.81L25.39-37.81Q27.01-39.43 29.19-40.36L29.19-40.36L29.19-40.36Q31.36-41.29 33.82-41.29L33.82-41.29L37.06-41.29L37.06-41.29Q39.51-41.29 41.69-40.36L41.69-40.36L41.69-40.36Q43.86-39.43 45.48-37.81L45.48-37.81L45.48-37.81Q47.10-36.19 48.03-34.01L48.03-34.01L48.03-34.01Q48.96-31.84 48.96-29.39L48.96-29.39L48.96-11.11zM44.10-10.84L44.10-29.66L44.10-29.66Q44.10-31.13 43.55-32.41L43.55-32.41L43.55-32.41Q42.99-33.70 42.04-34.65L42.04-34.65L42.04-34.65Q41.09-35.60 39.81-36.15L39.81-36.15L39.81-36.15Q38.52-36.70 37.06-36.70L37.06-36.70L33.82-36.70L33.82-36.70Q32.35-36.70 31.07-36.15L31.07-36.15L31.07-36.15Q29.78-35.60 28.83-34.65L28.83-34.65L28.83-34.65Q27.88-33.70 27.33-32.41L27.33-32.41L27.33-32.41Q26.78-31.13 26.78-29.66L26.78-29.66L26.78-10.84L26.78-10.84Q26.78-9.37 27.33-8.09L27.33-8.09L27.33-8.09Q27.88-6.80 28.83-5.85L28.83-5.85L28.83-5.85Q29.78-4.90 31.07-4.35L31.07-4.35L31.07-4.35Q32.35-3.80 33.82-3.80L33.82-3.80L37.06-3.80L37.06-3.80Q38.52-3.80 39.81-4.35L39.81-4.35L39.81-4.35Q41.09-4.90 42.04-5.85L42.04-5.85L42.04-5.85Q42.99-6.80 43.55-8.09L43.55-8.09L43.55-8.09Q44.10-9.37 44.10-10.84L44.10-10.84" fill="#347017" stroke="none" stroke-width="none" transform="translate(-104.114990234375,20.050695419311523)" style="fill: rgb(52, 112, 23);"></path></g><g class="path" style="opacity: 1; transform-origin: -31.895px -0.199305px; animation: 1s linear -0.4125s infinite normal forwards running blink-3927bf98-aa7b-4e42-8b74-03bcd1646162;"><path d="M85.75 0L84.12 0L81.44-4.03L81.44-4.03Q79.77-1.86 77.28-0.53L77.28-0.53L77.28-0.53Q74.79 0.79 71.82 0.79L71.82 0.79L70.60 0.79L70.60 0.79Q68.15 0.79 65.97-0.14L65.97-0.14L65.97-0.14Q63.80-1.07 62.17-2.69L62.17-2.69L62.17-2.69Q60.55-4.31 59.62-6.49L59.62-6.49L59.62-6.49Q58.69-8.66 58.69-11.11L58.69-11.11L58.69-11.51L58.69-11.51Q58.69-13.96 59.62-16.14L59.62-16.14L59.62-16.14Q60.55-18.31 62.17-19.93L62.17-19.93L62.17-19.93Q63.80-21.56 65.97-22.48L65.97-22.48L65.97-22.48Q68.15-23.41 70.60-23.41L70.60-23.41L80.88-23.41L80.88-29.66L80.88-29.66Q80.88-31.13 80.33-32.41L80.33-32.41L80.33-32.41Q79.77-33.70 78.82-34.65L78.82-34.65L78.82-34.65Q77.88-35.60 76.59-36.15L76.59-36.15L76.59-36.15Q75.30-36.70 73.84-36.70L73.84-36.70L70.99-36.70L70.99-36.70Q69.53-36.70 68.24-36.15L68.24-36.15L68.24-36.15Q66.96-35.60 66.01-34.65L66.01-34.65L66.01-34.65Q65.06-33.70 64.51-32.41L64.51-32.41L64.51-32.41Q63.95-31.13 63.95-29.66L63.95-29.66L63.95-28.20L59.09-28.99L59.09-29.39L59.09-29.39Q59.09-31.84 60.02-34.01L60.02-34.01L60.02-34.01Q60.95-36.19 62.57-37.81L62.57-37.81L62.57-37.81Q64.19-39.43 66.37-40.36L66.37-40.36L66.37-40.36Q68.54-41.29 70.99-41.29L70.99-41.29L73.84-41.29L73.84-41.29Q76.29-41.29 78.47-40.36L78.47-40.36L78.47-40.36Q80.64-39.43 82.27-37.81L82.27-37.81L82.27-37.81Q83.89-36.19 84.82-34.01L84.82-34.01L84.82-34.01Q85.75-31.84 85.75-29.39L85.75-29.39L85.75 0zM80.88-10.84L80.88-19.62L70.60-19.62L70.60-19.62Q69.13-19.62 67.85-19.06L67.85-19.06L67.85-19.06Q66.56-18.51 65.61-17.54L65.61-17.54L65.61-17.54Q64.67-16.57 64.11-15.29L64.11-15.29L64.11-15.29Q63.56-14.00 63.56-12.54L63.56-12.54L63.56-10.84L63.56-10.84Q63.56-9.37 64.11-8.09L64.11-8.09L64.11-8.09Q64.67-6.80 65.61-5.85L65.61-5.85L65.61-5.85Q66.56-4.90 67.85-4.35L67.85-4.35L67.85-4.35Q69.13-3.80 70.60-3.80L70.60-3.80L73.84-3.80L73.84-3.80Q75.30-3.80 76.59-4.35L76.59-4.35L76.59-4.35Q77.88-4.90 78.82-5.85L78.82-5.85L78.82-5.85Q79.77-6.80 80.33-8.09L80.33-8.09L80.33-8.09Q80.88-9.37 80.88-10.84L80.88-10.84" fill="#347017" stroke="none" stroke-width="none" transform="translate(-104.114990234375,20.050695419311523)" style="fill: rgb(52, 112, 23);"></path></g><g class="path" style="opacity: 1; transform-origin: 4.89001px -7.9143px; animation: 1s linear -0.33s infinite normal forwards running blink-3927bf98-aa7b-4e42-8b74-03bcd1646162;"><path d="M122.53 0L120.91 0L118.22-4.11L118.22-4.11Q116.56-1.86 114.06-0.53L114.06-0.53L114.06-0.53Q111.57 0.79 108.61 0.79L108.61 0.79L107.38 0.79L107.38 0.79Q104.93 0.79 102.75-0.14L102.75-0.14L102.75-0.14Q100.58-1.07 98.96-2.69L98.96-2.69L98.96-2.69Q97.33-4.31 96.41-6.49L96.41-6.49L96.41-6.49Q95.48-8.66 95.48-11.11L95.48-11.11L95.48-29.39L95.48-29.39Q95.48-31.84 96.41-34.01L96.41-34.01L96.41-34.01Q97.33-36.19 98.96-37.81L98.96-37.81L98.96-37.81Q100.58-39.43 102.75-40.36L102.75-40.36L102.75-40.36Q104.93-41.29 107.38-41.29L107.38-41.29L108.61-41.29L108.61-41.29Q111.34-41.29 113.67-40.18L113.67-40.18L113.67-40.18Q116.00-39.08 117.66-37.10L117.66-37.10L117.66-56.72L122.53-56.72L122.53 0zM117.66-10.84L117.66-29.66L117.66-29.66Q117.66-31.13 117.11-32.41L117.11-32.41L117.11-32.41Q116.56-33.70 115.61-34.65L115.61-34.65L115.61-34.65Q114.66-35.60 113.37-36.15L113.37-36.15L113.37-36.15Q112.09-36.70 110.62-36.70L110.62-36.70L107.38-36.70L107.38-36.70Q105.92-36.70 104.63-36.15L104.63-36.15L104.63-36.15Q103.35-35.60 102.40-34.65L102.40-34.65L102.40-34.65Q101.45-33.70 100.89-32.41L100.89-32.41L100.89-32.41Q100.34-31.13 100.34-29.66L100.34-29.66L100.34-10.84L100.34-10.84Q100.34-9.37 100.89-8.09L100.89-8.09L100.89-8.09Q101.45-6.80 102.40-5.85L102.40-5.85L102.40-5.85Q103.35-4.90 104.63-4.35L104.63-4.35L104.63-4.35Q105.92-3.80 107.38-3.80L107.38-3.80L110.62-3.80L110.62-3.80Q112.09-3.80 113.37-4.35L113.37-4.35L113.37-4.35Q114.66-4.90 115.61-5.85L115.61-5.85L115.61-5.85Q116.56-6.80 117.11-8.09L117.11-8.09L117.11-8.09Q117.66-9.37 117.66-10.84L117.66-10.84" fill="#347017" stroke="none" stroke-width="none" transform="translate(-104.114990234375,20.050695419311523)" style="fill: rgb(52, 112, 23);"></path></g><g class="path" style="opacity: 1; transform-origin: 32.195px -33.4243px; animation: 1s linear -0.2475s infinite normal forwards running blink-3927bf98-aa7b-4e42-8b74-03bcd1646162;"><path d="M139.14-50.23L133.48-50.23L133.48-56.72L139.14-56.72L139.14-50.23" fill="#347017" stroke="none" stroke-width="none" transform="translate(-104.114990234375,20.050695419311523)" style="fill: rgb(52, 112, 23);"></path></g><g class="path" style="opacity: 1; transform-origin: 32.195px -0.199305px; animation: 1s linear -0.165s infinite normal forwards running blink-3927bf98-aa7b-4e42-8b74-03bcd1646162;"><path d="M138.74 0L133.88 0L133.88-40.50L138.74-40.50L138.74 0" fill="#347017" stroke="none" stroke-width="none" transform="translate(-104.114990234375,20.050695419311523)" style="fill: rgb(52, 112, 23);"></path></g><g class="path" style="opacity: 1; transform-origin: 59.51px -0.594305px; animation: 1s linear -0.0825s infinite normal forwards running blink-3927bf98-aa7b-4e42-8b74-03bcd1646162;"><path d="M177.15 0L172.28 0L172.28-29.66L172.28-29.66Q172.28-31.13 171.73-32.41L171.73-32.41L171.73-32.41Q171.18-33.70 170.23-34.65L170.23-34.65L170.23-34.65Q169.28-35.60 167.99-36.15L167.99-36.15L167.99-36.15Q166.71-36.70 165.24-36.70L165.24-36.70L162-36.70L162-36.70Q160.54-36.70 159.25-36.15L159.25-36.15L159.25-36.15Q157.97-35.60 157.02-34.65L157.02-34.65L157.02-34.65Q156.07-33.70 155.51-32.41L155.51-32.41L155.51-32.41Q154.96-31.13 154.96-29.66L154.96-29.66L154.96 0L150.10 0L150.10-40.50L151.72-40.50L154.37-36.39L154.37-36.39Q156.03-38.64 158.54-39.97L158.54-39.97L158.54-39.97Q161.05-41.29 164.02-41.29L164.02-41.29L165.24-41.29L165.24-41.29Q167.70-41.29 169.87-40.36L169.87-40.36L169.87-40.36Q172.05-39.43 173.67-37.81L173.67-37.81L173.67-37.81Q175.29-36.19 176.22-34.01L176.22-34.01L176.22-34.01Q177.15-31.84 177.15-29.39L177.15-29.39L177.15 0" fill="#347017" stroke="none" stroke-width="none" transform="translate(-104.114990234375,20.050695419311523)" style="fill: rgb(52, 112, 23);"></path></g><g class="path" style="opacity: 1; transform-origin: 96.685px 7.5157px; animation: 1s linear 0s infinite normal forwards running blink-3927bf98-aa7b-4e42-8b74-03bcd1646162;"><path d="M214.33 5.10L214.33 5.10L214.33 5.10Q214.33 7.55 213.40 9.61L213.40 9.61L213.40 9.61Q212.47 11.67 210.85 13.13L210.85 13.13L210.85 13.13Q209.22 14.59 207.05 15.41L207.05 15.41L207.05 15.41Q204.87 16.22 202.42 16.22L202.42 16.22L200.40 16.22L200.40 16.22Q197.95 16.22 195.78 15.41L195.78 15.41L195.78 15.41Q193.60 14.59 191.98 13.13L191.98 13.13L191.98 13.13Q190.36 11.67 189.43 9.61L189.43 9.61L189.43 9.61Q188.50 7.55 188.50 5.10L188.50 5.10L188.50 4.94L188.50 4.94Q188.50 2.57 189.37 0.59L189.37 0.59L189.37 0.59Q190.24-1.38 191.74-2.85L191.74-2.85L191.74-2.85Q189.84-3.99 188.72-5.95L188.72-5.95L188.72-5.95Q187.59-7.91 187.59-10.28L187.59-10.28L187.59-10.28Q187.59-12.42 188.50-14.26L188.50-14.26L188.50-14.26Q189.41-16.10 190.99-17.24L190.99-17.24L190.99-17.24Q189.09-18.91 187.98-21.24L187.98-21.24L187.98-21.24Q186.88-23.57 186.88-26.34L186.88-26.34L186.88-29.39L186.88-29.39Q186.88-31.84 187.81-34.01L187.81-34.01L187.81-34.01Q188.74-36.19 190.36-37.81L190.36-37.81L190.36-37.81Q191.98-39.43 194.15-40.36L194.15-40.36L194.15-40.36Q196.33-41.29 198.78-41.29L198.78-41.29L200.80-41.29L200.80-41.29Q203.77-41.29 206.28-39.97L206.28-39.97L206.28-39.97Q208.79-38.64 210.45-36.39L210.45-36.39L213.10-40.50L214.72-40.50L214.72-26.34L214.72-26.34Q214.72-23.89 213.79-21.71L213.79-21.71L213.79-21.71Q212.86-19.54 211.24-17.92L211.24-17.92L211.24-17.92Q209.62-16.29 207.44-15.37L207.44-15.37L207.44-15.37Q205.27-14.44 202.82-14.44L202.82-14.44L195.78-14.44L195.78-14.44Q194.95-14.44 194.19-14.10L194.19-14.10L194.19-14.10Q193.44-13.76 192.87-13.21L192.87-13.21L192.87-13.21Q192.30-12.66 191.98-11.89L191.98-11.89L191.98-11.89Q191.66-11.11 191.66-10.28L191.66-10.28L191.66-10.28Q191.66-9.45 191.98-8.70L191.98-8.70L191.98-8.70Q192.30-7.95 192.87-7.38L192.87-7.38L192.87-7.38Q193.44-6.80 194.19-6.49L194.19-6.49L194.19-6.49Q194.95-6.17 195.78-6.17L195.78-6.17L202.42-6.17L202.42-6.17Q204.87-6.17 207.05-5.36L207.05-5.36L207.05-5.36Q209.22-4.55 210.85-3.08L210.85-3.08L210.85-3.08Q212.47-1.62 213.40 0.44L213.40 0.44L213.40 0.44Q214.33 2.49 214.33 4.94L214.33 4.94L214.33 5.10zM209.90-26.06L209.90-29.66L209.90-29.66Q209.90-31.13 209.34-32.41L209.34-32.41L209.34-32.41Q208.79-33.70 207.82-34.65L207.82-34.65L207.82-34.65Q206.85-35.60 205.57-36.15L205.57-36.15L205.57-36.15Q204.28-36.70 202.82-36.70L202.82-36.70L198.78-36.70L198.78-36.70Q197.32-36.70 196.03-36.15L196.03-36.15L196.03-36.15Q194.75-35.60 193.80-34.65L193.80-34.65L193.80-34.65Q192.85-33.70 192.30-32.41L192.30-32.41L192.30-32.41Q191.74-31.13 191.74-29.66L191.74-29.66L191.74-26.06L191.74-26.06Q191.74-24.60 192.30-23.32L192.30-23.32L192.30-23.32Q192.85-22.03 193.80-21.08L193.80-21.08L193.80-21.08Q194.75-20.13 196.03-19.58L196.03-19.58L196.03-19.58Q197.32-19.02 198.78-19.02L198.78-19.02L202.82-19.02L202.82-19.02Q204.28-19.02 205.57-19.58L205.57-19.58L205.57-19.58Q206.85-20.13 207.82-21.08L207.82-21.08L207.82-21.08Q208.79-22.03 209.34-23.32L209.34-23.32L209.34-23.32Q209.90-24.60 209.90-26.06L209.90-26.06zM209.70 5.34L209.70 4.71L209.70 4.71Q209.70 3.24 209.14 2.08L209.14 2.08L209.14 2.08Q208.59 0.91 207.64 0.12L207.64 0.12L207.64 0.12Q206.69-0.67 205.41-1.11L205.41-1.11L205.41-1.11Q204.12-1.54 202.66-1.54L202.66-1.54L200.17-1.54L200.17-1.54Q198.70-1.54 197.42-1.11L197.42-1.11L197.42-1.11Q196.13-0.67 195.18 0.12L195.18 0.12L195.18 0.12Q194.23 0.91 193.68 2.08L193.68 2.08L193.68 2.08Q193.13 3.24 193.13 4.71L193.13 4.71L193.13 5.34L193.13 5.34Q193.13 6.80 193.68 7.95L193.68 7.95L193.68 7.95Q194.23 9.10 195.18 9.91L195.18 9.91L195.18 9.91Q196.13 10.72 197.42 11.15L197.42 11.15L197.42 11.15Q198.70 11.59 200.17 11.59L200.17 11.59L202.66 11.59L202.66 11.59Q204.12 11.59 205.41 11.15L205.41 11.15L205.41 11.15Q206.69 10.72 207.64 9.91L207.64 9.91L207.64 9.91Q208.59 9.10 209.14 7.95L209.14 7.95L209.14 7.95Q209.70 6.80 209.70 5.34L209.70 5.34" fill="#347017" stroke="none" stroke-width="none" transform="translate(-104.114990234375,20.050695419311523)" style="fill: rgb(52, 112, 23);"></path></g></g>
</g>
</g>
<style id="blink-3927bf98-aa7b-4e42-8b74-03bcd1646162" data-anikit="">@keyframes blink-3927bf98-aa7b-4e42-8b74-03bcd1646162 {
  0% { opacity: 1; }
  49.75% { opacity: 1; }
  50.25% { opacity: 0; }
  99.5% { opacity: 0; }
  100% { opacity: 1; }
}</style></svg>