<?xml version="1.0" standalone="no"?>
<!DOCTYPE svg PUBLIC "-//W3C//DTD SVG 20010904//EN"
 "http://www.w3.org/TR/2001/REC-SVG-20010904/DTD/svg10.dtd">
<svg version="1.0" xmlns="http://www.w3.org/2000/svg"
 width="225.000000pt" height="225.000000pt" viewBox="0 0 225.000000 225.000000"
 preserveAspectRatio="xMidYMid meet">
<metadata>
Created by potrace 1.10, written by Peter Selinger 2001-2011
</metadata>
<g transform="translate(0.000000,225.000000) scale(0.100000,-0.100000)"
fill="#0000ff" stroke="none">
<path d="M945 2010 c-71 -14 -168 -51 -245 -92 -236 -126 -402 -350 -456 -617
-20 -103 -15 -313 11 -406 42 -151 174 -368 271 -441 30 -24 49 -29 106 -32
l69 -4 -26 -28 -27 -28 47 -27 c62 -37 178 -81 243 -93 50 -9 53 -8 71 17 59
83 56 55 61 581 l5 484 27 15 c21 12 31 13 52 3 l26 -12 0 -551 0 -552 68 6
c275 24 546 221 677 492 77 159 90 218 89 405 0 139 -3 164 -27 243 -99 324
-344 556 -667 632 -36 8 -82 15 -102 15 l-38 0 0 -165 0 -165 -55 0 -55 0 0
165 0 165 -42 -1 c-24 -1 -61 -5 -83 -9z m-215 -901 c0 -427 4 -408 -69 -298
-100 149 -122 333 -61 505 32 91 83 161 128 173 1 1 2 -171 2 -380z m845 350
c96 -115 137 -329 91 -484 -24 -80 -70 -165 -112 -206 l-34 -33 0 370 c0 204
3 374 7 377 12 12 21 8 48 -24z"/>
</g>
</svg>
